<?xml version="1.0" encoding="UTF-8"?>
<svg version="1.1" xmlns="http://www.w3.org/2000/svg" width="4501" height="4501">
<path d="M0 0 C1.40371353 -0.00101212 1.40371353 -0.00101212 2.83578491 -0.00204468 C92.86213939 0.10003575 178.80907117 29.22892656 274.6875 101.25 C276.06211834 102.43794178 277.43705738 103.6255127 278.8125 104.8125 C280.10753001 105.95453068 281.3989054 107.10071293 282.6875 108.25 C283.54085937 109.01054688 284.39421875 109.77109375 285.2734375 110.5546875 C291.33564879 116.03180601 297.2117451 121.67139404 303 127.4375 C303.65742187 128.09032959 304.31484375 128.74315918 304.9921875 129.41577148 C309.42610559 133.86368553 313.59737564 138.48579613 317.6875 143.25 C318.533125 144.21421875 319.37875 145.1784375 320.25 146.171875 C375.37776024 210.1342122 407.83119754 288.9568902 418.6875 372.25 C418.82172363 373.25546875 418.95594727 374.2609375 419.09423828 375.296875 C423.2397507 407.94788704 422.09755392 442.68244629 417.6875 475.25 C417.43806641 477.10020752 417.43806641 477.10020752 417.18359375 478.98779297 C405.3973945 562.98628889 367.39556604 643.01846177 309.10644531 704.72949219 C306.84140859 707.15665129 304.64917045 709.6492495 302.4375 712.125 C269.68350718 748.18862972 227.89578563 775.50784934 184.6875 797.25 C183.89875488 797.6517041 183.11000977 798.0534082 182.29736328 798.46728516 C90.90339416 844.76593517 -20.64103151 850.83779335 -130.59765625 818.26171875 C-173.15061617 804.26210459 -213.67508414 783.42442232 -249.3125 756.25 C-250.24642578 755.54133789 -250.24642578 755.54133789 -251.19921875 754.81835938 C-268.39679624 741.70933176 -284.3736324 727.248317 -299.6875 712 C-300.43676758 711.25540527 -301.18603516 710.51081055 -301.95800781 709.74365234 C-306.61395298 705.07421469 -311.02535557 700.25858397 -315.3125 695.25 C-316.158125 694.28578125 -317.00375 693.3215625 -317.875 692.328125 C-375.49076371 625.47906583 -411.88988644 538.50708908 -417.3125 450.25 C-417.36744629 449.39486816 -417.42239258 448.53973633 -417.47900391 447.65869141 C-417.85920235 441.52504744 -418.12728058 435.39250544 -418.3125 429.25 C-418.33586426 428.51233398 -418.35922852 427.77466797 -418.38330078 427.01464844 C-420.97331513 331.2929418 -387.87121465 234.19996802 -303.3125 131.25 C-299.72278508 127.50713926 -296.07303884 123.82467312 -292.40576172 120.15795898 C-290.80796107 118.55795481 -289.21838449 116.95006385 -287.62890625 115.34179688 C-281.17998679 108.8581741 -274.48696544 102.93703997 -267.3125 97.25 C-266.28476158 96.386836 -265.26134083 95.51844714 -264.24609375 94.640625 C-255.66864284 87.28468901 -246.55957515 80.73186595 -237.3125 74.25 C-236.69036621 73.81187988 -236.06823242 73.37375977 -235.42724609 72.92236328 C-223.52919723 64.59736157 -210.92530865 57.4248011 -198.3125 50.25 C-197.26908447 49.65058594 -197.26908447 49.65058594 -196.20458984 49.0390625 C-174.84848892 36.83229839 -151.61268363 27.94071309 -128.3125 20.25 C-127.2203418 19.88922363 -126.12818359 19.52844727 -125.00292969 19.15673828 C-84.63632025 6.04575058 -42.38434771 0.02776956 0 0 Z M-161.3125 74.25 C-162.7361084 74.92264893 -162.7361084 74.92264893 -164.18847656 75.60888672 C-195.19416432 90.3575669 -223.56150586 109.56399154 -249.3125 132.25 C-250.02543213 132.87535645 -250.73836426 133.50071289 -251.47290039 134.14501953 C-257.94682234 139.890812 -264.13561533 145.88688772 -270.25366211 152.00585938 C-271.87140192 153.6214068 -273.49700636 155.22875034 -275.12304688 156.8359375 C-281.63882106 163.3166803 -287.61537382 170.02480067 -293.3125 177.25 C-294.31334453 178.46996615 -295.31685758 179.68775301 -296.32421875 180.90234375 C-344.19939448 239.3813933 -373.06172745 313.05337658 -379.3125 388.25 C-379.48072266 390.19712891 -379.48072266 390.19712891 -379.65234375 392.18359375 C-384.66346678 461.44692437 -370.37585428 531.77132849 -338.30126953 593.34179688 C-337.28754729 595.29815564 -336.29741414 597.2653285 -335.30859375 599.234375 C-323.36245495 622.73534248 -308.15111838 644.6456674 -290.8125 664.47900391 C-289.65839935 665.84160907 -288.53359272 667.22906553 -287.421875 668.62646484 C-281.85508003 675.60886658 -275.88647127 681.98652171 -269.55664062 688.26660156 C-267.93903713 689.87347307 -266.33243087 691.49078494 -264.7265625 693.109375 C-258.24154191 699.60263167 -251.4993808 705.52967916 -244.3125 711.25 C-243.21065612 712.184761 -242.11432933 713.12612688 -241.02734375 714.078125 C-216.94207314 735.08075197 -189.06604654 751.50033424 -160.3125 765.25 C-159.5896582 765.59885254 -158.86681641 765.94770508 -158.12207031 766.30712891 C-135.15652857 777.30589481 -111.0471255 785.30683538 -86.3125 791.25 C-85.3342627 791.48557617 -84.35602539 791.72115234 -83.34814453 791.96386719 C-71.10308571 794.84771944 -58.7796235 796.87625412 -46.3125 798.5 C-45.06122314 798.66330811 -43.80994629 798.82661621 -42.52075195 798.99487305 C-27.97959452 800.79181508 -13.51327818 801.46201797 1.125 801.4375 C1.86039001 801.43656342 2.59578003 801.43562683 3.35345459 801.43466187 C86.08269335 801.20860135 168.49197575 773.4249814 233.6875 722.25 C234.49574219 721.62222656 235.30398438 720.99445312 236.13671875 720.34765625 C254.24894705 706.0853702 271.42485396 690.54236599 286.6875 673.25 C287.15929688 672.72293457 287.63109375 672.19586914 288.1171875 671.65283203 C301.2805465 656.91965353 313.13561663 640.94901754 323.6875 624.25 C324.04440918 623.68635742 324.40131836 623.12271484 324.76904297 622.54199219 C327.51282936 618.17045109 330.12274985 613.72856827 332.6875 609.25 C333.17089844 608.40888672 333.65429688 607.56777344 334.15234375 606.70117188 C366.47743432 549.99119379 383.23199688 485.4754467 383 420.25 C382.99817719 419.17972565 382.99635437 418.10945129 382.99447632 417.00674438 C382.94560976 399.9042436 382.29538234 383.17853603 379.6875 366.25 C379.51057617 365.08855469 379.33365234 363.92710937 379.15136719 362.73046875 C368.98423609 297.89964317 343.21800101 235.39809072 301.6875 184.25 C300.93210937 183.30382813 300.17671875 182.35765625 299.3984375 181.3828125 C295.09889879 176.04902049 290.64578717 170.88827965 286.0234375 165.83203125 C284.13045939 163.73962568 282.28312512 161.62135732 280.44140625 159.484375 C276.55601111 155.03522277 272.43680062 150.85168964 268.25 146.6875 C267.53779297 145.97142578 266.82558594 145.25535156 266.09179688 144.51757812 C261.45477317 139.88897771 256.67813913 135.49380816 251.6875 131.25 C251.05046143 130.70625732 250.41342285 130.16251465 249.75708008 129.60229492 C214.39504073 99.6339361 174.25591058 76.10975357 130.6875 60.25 C129.7382666 59.90340332 128.7890332 59.55680664 127.81103516 59.19970703 C106.31896455 51.45616018 84.27276379 46.13939391 61.75 42.4375 C59.97774048 42.14516479 59.97774048 42.14516479 58.16967773 41.84692383 C39.5681055 38.96216083 20.99717507 37.86515052 2.1875 37.9375 C0.69479584 37.94023422 0.69479584 37.94023422 -0.82806396 37.94302368 C-56.38014469 38.11321118 -111.13693908 50.33780993 -161.3125 74.25 Z " fill="#073DBE" transform="translate(1186.3125,1830.75)"/>
<path d="M0 0 C1.13937012 0.05583252 1.13937012 0.05583252 2.30175781 0.11279297 C45.17619982 2.43977561 83.2970601 20.43245387 114 50 C114.64066406 50.58910156 115.28132813 51.17820312 115.94140625 51.78515625 C119.82168009 55.44935916 123.1761601 59.52261915 126.5 63.6875 C127.18763428 64.52643799 127.18763428 64.52643799 127.88916016 65.38232422 C131.05062125 69.44775608 131.05062125 69.44775608 130.81420898 72.02685547 C129.83519877 74.39937736 128.93174998 75.13369269 126.81640625 76.55859375 C126.14496582 77.02040039 125.47352539 77.48220703 124.78173828 77.95800781 C124.04938965 78.44624023 123.31704102 78.93447266 122.5625 79.4375 C121.00833861 80.50277505 119.45497968 81.56922158 117.90234375 82.63671875 C116.69167236 83.46308838 116.69167236 83.46308838 115.45654297 84.30615234 C111.46671928 87.0572353 107.54657823 89.90286671 103.625 92.75 C102.87500732 93.29285645 102.12501465 93.83571289 101.35229492 94.39501953 C95.56133432 98.5872173 89.77678564 102.78829064 84 107 C80.92343052 104.62978576 78.22983994 102.29957993 75.75 99.3125 C57.5603573 78.28558397 31.11384814 63.15805564 3 61 C-28.79532174 59.16878758 -57.4974746 68.07138405 -81.57519531 89.39501953 C-103.46384891 109.36927365 -115.71256413 136.612803 -118 166 C-118.0721875 166.89332031 -118.144375 167.78664063 -118.21875 168.70703125 C-119.25439855 196.10856573 -108.55974568 221.73942329 -92 243 C-91.36578125 243.81984375 -90.7315625 244.6396875 -90.078125 245.484375 C-72.15881016 267.07944673 -43.44741002 279.41092893 -16 282 C15.39869128 283.72608603 45.31788179 273.73096194 69 253 C76.50420501 246.09487018 81.87738829 239.41859111 88 231 C54.01 230.34 20.02 229.68 -15 229 C-15 209.2 -15 189.4 -15 169 C44.07 169 103.14 169 164 169 C164 217.42285922 148.56523484 259.96920122 114.3515625 294.6875 C80.86414004 326.06310302 38.07557813 342.52338716 -7.6875 342.3125 C-8.52860321 342.31034485 -9.36970642 342.3081897 -10.23629761 342.30596924 C-22.38398503 342.25598529 -34.16008974 341.96198979 -46 339 C-46.81033691 338.80664062 -47.62067383 338.61328125 -48.45556641 338.4140625 C-73.67272434 332.26515626 -97.54848058 321.41177042 -117 304 C-117.97195313 303.14792969 -118.94390625 302.29585937 -119.9453125 301.41796875 C-154.82194259 270.47369968 -175.70040814 228.59210918 -179 182 C-181.44635443 135.51926591 -165.98761642 90.90922074 -134.83984375 56.28125 C-132.59005699 53.82465833 -130.29881485 51.41086934 -128 49 C-127.26136719 48.20851563 -126.52273438 47.41703125 -125.76171875 46.6015625 C-94.30810206 13.82539886 -44.74756084 -2.43674836 0 0 Z " fill="#073DBE" transform="translate(1076,2095)"/>
<path d="M0 0 C3.87966308 3.5605295 7.3158942 7.28215861 10.625 11.375 C9.29733498 15.30490558 7.70857519 17.64303246 4.73828125 20.51953125 C3.96419922 21.27943359 3.19011719 22.03933594 2.39257812 22.82226562 C1.58240234 23.60279297 0.77222656 24.38332031 -0.0625 25.1875 C-5.15958437 30.14334487 -10.12336343 35.1062916 -14.75561523 40.50219727 C-17.26595917 43.40538562 -19.88770246 46.18618029 -22.5625 48.9375 C-23.06974609 49.48212891 -23.57699219 50.02675781 -24.09960938 50.58789062 C-27.77635483 54.3504745 -27.77635483 54.3504745 -30.47265625 54.4609375 C-32.902995 53.07359834 -34.63857009 51.41351157 -36.625 49.4375 C-56.87171482 30.73678984 -83.75067454 21.25518957 -111.13818359 22.23876953 C-132.12442655 23.51691006 -151.60653984 31.37674694 -167.375 45.375 C-168.38626953 46.24511719 -168.38626953 46.24511719 -169.41796875 47.1328125 C-187.31802076 63.63944729 -196.28137781 88.77658797 -197.3515625 112.63964844 C-198.0170988 140.12867436 -187.71624921 165.24069462 -168.9375 185.1875 C-150.04871566 202.9806472 -125.07660436 212.05061925 -99.2734375 211.625 C-79.7667331 210.37406906 -59.84247202 203.02118932 -46.375 188.375 C-38.96857356 179.18627843 -35.66558314 169.82791569 -33.375 158.375 C-58.455 158.375 -83.535 158.375 -109.375 158.375 C-109.375 140.225 -109.375 122.075 -109.375 103.375 C-63.835 103.375 -18.295 103.375 28.625 103.375 C32.53612101 111.19724203 30.84604816 123.59667109 30.86523438 132.23046875 C30.87487621 134.84147803 30.90594926 137.4516766 30.9375 140.0625 C31.03355639 155.0855593 29.48225203 169.68052661 24.5 183.9375 C24.2014209 184.80753662 23.9028418 185.67757324 23.59521484 186.57397461 C11.86841712 219.44799759 -12.55642509 243.43332155 -43.5 258.5625 C-81.94916737 276.53902097 -128.2172493 275.48533162 -167.67919922 261.56201172 C-203.21820078 248.51881567 -232.69897555 222.28802046 -249.125 188.0625 C-266.37858571 150.79071456 -270.02838552 106.67391066 -257.375 67.375 C-257.17567871 66.7552832 -256.97635742 66.13556641 -256.77099609 65.49707031 C-249.82504915 44.39721916 -238.62835435 26.46213899 -223.375 10.375 C-222.93317383 9.900625 -222.49134766 9.42625 -222.03613281 8.9375 C-165.91777986 -51.04704428 -60.94835555 -53.43169358 0 0 Z " fill="#073DBE" transform="translate(1964.375,2137.625)"/>
<path d="M0 0 C20.13 0 40.26 0 61 0 C61 104.61 61 209.22 61 317 C41.86 317 22.72 317 3 317 C2.18185808 313.72743232 1.88128166 311.52006101 1.90234375 308.234375 C1.90556641 307.34492188 1.90878906 306.45546875 1.91210938 305.5390625 C1.92048828 304.61867188 1.92886719 303.69828125 1.9375 302.75 C1.94201172 301.81414063 1.94652344 300.87828125 1.95117188 299.9140625 C1.96293082 297.60930959 1.97936574 295.30468773 2 293 C0.98292969 293.85271484 0.98292969 293.85271484 -0.0546875 294.72265625 C-24.05834383 314.63704703 -49.90519726 323.63854267 -81.40673828 320.78173828 C-101.83599556 318.26294145 -120.81795892 309.90330868 -136 296 C-137.27810547 294.84371094 -137.27810547 294.84371094 -138.58203125 293.6640625 C-161.53733985 271.87238705 -172.21655946 240.23544791 -173.16015625 209.16796875 C-173.84787434 176.66963089 -166.61038473 143.52357113 -144 119 C-143.4534375 118.31421875 -142.906875 117.6284375 -142.34375 116.921875 C-128.00655334 99.07065955 -104.08366602 87.76008144 -81.61328125 85.24609375 C-53.37651651 83.32294112 -27.08693956 89.50304288 -5 108 C-3.68 109.32 -2.36 110.64 -1 112 C-0.67 75.04 -0.34 38.08 0 0 Z M-97 156 C-110.3699511 173.7467592 -113.22564824 195.84285514 -110.71142578 217.48388672 C-107.87026926 235.39652052 -99.17464077 250.62057693 -84.4375 261.46875 C-72.00333731 269.27995477 -58.35976708 271.22543902 -44 269 C-28.67316784 265.39258706 -17.33989973 256.98505296 -8.75 243.875 C2.02428806 225.5737642 4.26296441 202.26058022 -0.625 181.6875 C-4.39874041 167.31411448 -12.56602268 153.53271262 -25 145 C-49.58489368 131.49078812 -78.0221022 134.48678417 -97 156 Z " fill="#073DBE" transform="translate(3471,2088)"/>
<path d="M0 0 C16.51622641 -0.21065233 33.03201421 -0.36914783 49.54926109 -0.46630955 C57.21933389 -0.51263178 64.88856994 -0.5757329 72.55810547 -0.67895508 C79.24637517 -0.76892742 85.9340387 -0.82678605 92.62289679 -0.84679645 C96.16190216 -0.85848657 99.69917412 -0.88576676 103.23762131 -0.95157051 C107.19698226 -1.02459818 111.15467928 -1.02589237 115.11474609 -1.02172852 C116.27568787 -1.054086 117.43662964 -1.08644348 118.63275146 -1.11978149 C125.15762806 -1.04577277 128.6311884 -0.06254362 133.55532837 4.34510803 C135.05260242 5.88157797 136.53539264 7.43236013 138 9 C139.3185784 10.18331733 140.64925903 11.3535325 142 12.5 C145.89929326 15.89615864 149.736291 19.35901843 153.57421875 22.82421875 C155.63702788 24.67443563 157.7171237 26.49944809 159.8125 28.3125 C163.98113532 31.94216025 168.02761432 35.69957904 172.08129883 39.45629883 C175.36466779 42.497122 178.66650611 45.51397127 182 48.5 C186.94590436 52.93370714 191.82286654 57.4394342 196.69921875 61.94921875 C203.4078422 68.15316761 210.1346369 74.33686793 216.9375 80.4375 C220.823707 83.92448189 224.66838627 87.45336393 228.5 91 C233.17043747 95.32226275 237.8678482 99.6110375 242.609375 103.85546875 C244.23021704 105.3094594 245.8446228 106.77065106 247.453125 108.23828125 C251.732906 112.13449697 256.06896122 115.91384665 260.5625 119.5625 C262.37599471 121.04044696 264.18852933 122.51957294 266 124 C266.81984375 124.66902344 267.6396875 125.33804688 268.484375 126.02734375 C273.7352476 130.47648916 277.65242584 134.97640152 281 141 C281.41378906 141.70125 281.82757812 142.4025 282.25390625 143.125 C287.00657937 152.66346592 286.69362693 166.20373159 283.375 176.1875 C278.49927658 187.21309059 269.27962978 195.27710073 260.2890625 202.99609375 C257.35037429 205.56869964 254.48863478 208.21942651 251.625 210.875 C246.96078625 215.19770161 242.2630561 219.47816852 237.52734375 223.72265625 C234.66917758 226.2980981 231.83293383 228.89689696 229 231.5 C222.90016822 237.10307436 216.74438779 242.64212966 210.578125 248.171875 C205.51127991 252.72235371 200.47637512 257.30605967 195.46142578 261.91357422 C191.51936798 265.53228476 187.54500503 269.11345702 183.5625 272.6875 C180.69399591 275.27615003 177.8452335 277.88585146 175 280.5 C170.54664513 284.59166107 166.06340146 288.64822946 161.5625 292.6875 C158.69399591 295.27615003 155.8452335 297.88585146 153 300.5 C148.55611789 304.58295768 144.08378067 308.63236514 139.58984375 312.66015625 C137.65525829 314.40799439 135.73172112 316.16486203 133.81640625 317.93359375 C133.27564453 318.43246094 132.73488281 318.93132813 132.17773438 319.4453125 C131.12399287 320.41878107 130.07183202 321.39396426 129.02148438 322.37109375 C124.96165833 326.12030224 122.53517878 328.2518406 116.93171692 328.24050903 C115.36049828 328.24463303 115.36049828 328.24463303 113.75753784 328.24884033 C112.60883209 328.24164978 111.46012634 328.23445923 110.27661133 328.22705078 C108.46179008 328.22748886 108.46179008 328.22748886 106.61030579 328.22793579 C103.29231005 328.22678035 99.97456252 328.21674297 96.65661073 328.20278788 C93.1892687 328.19029393 89.72192344 328.18911107 86.25456238 328.18673706 C79.68851001 328.18051836 73.12252416 328.16410228 66.55650109 328.14403808 C59.0813715 328.12169121 51.60623875 328.11068871 44.13108408 328.10064721 C28.75401752 328.07973637 13.37701733 328.04455283 -2 328 C-1.14556291 323.58579637 0.86789129 321.97483907 4.25 319 C5.34937654 318.02130291 6.44832016 317.04211933 7.546875 316.0625 C8.40249023 315.30646484 8.40249023 315.30646484 9.27539062 314.53515625 C12.05314725 312.06254389 14.77442262 309.52980631 17.5 307 C23.15452083 301.7732523 28.82793971 296.56737622 34.50732422 291.36767578 C36.02814876 289.97420848 37.54747324 288.57912249 39.06640625 287.18359375 C44.49654917 282.19623362 49.95018716 277.23701152 55.4375 272.3125 C58.30600409 269.72384997 61.1547665 267.11414854 64 264.5 C68.45064847 260.41082552 72.93078083 256.35630916 77.4296875 252.3203125 C80.34428447 249.68920217 83.23539224 247.03347525 86.125 244.375 C89.36213091 241.3977736 92.61137856 238.44047034 95.9375 235.5625 C100.069109 231.98062691 104.06929927 228.26162042 108.07958984 224.54541016 C112.17424371 220.7536258 116.30833007 217.00912216 120.46484375 213.28515625 C123.36913266 210.66726871 126.24770775 208.02246797 129.125 205.375 C132.36211029 202.39775181 135.6113792 199.44046979 138.9375 196.5625 C143.06833042 192.9813019 147.0676702 189.26291164 151.07739258 185.54760742 C155.185682 181.74350371 159.33071968 177.98335983 163.5 174.24609375 C168.01951329 170.18559353 172.5078674 166.09074432 177 162 C175.4097555 157.84769492 172.36209622 155.32225921 169.125 152.4375 C168.54709717 151.91373779 167.96919434 151.38997559 167.3737793 150.8503418 C166.17387616 149.76292447 164.97194988 148.6777356 163.76806641 147.59472656 C161.60083821 145.63997172 159.45287634 143.66495359 157.30615234 141.68774414 C152.42697483 137.19535987 147.50716428 132.74919239 142.5703125 128.3203125 C139.65571526 125.68920193 136.76462591 123.03345583 133.875 120.375 C130.00637105 116.81741659 126.09665736 113.31710305 122.125 109.875 C119.38176544 107.45449892 116.69117094 104.9779759 114 102.5 C110.06715159 98.87909866 106.09785988 95.31041075 102.05859375 91.80859375 C99.5104335 89.5698875 97.00589407 87.28589788 94.5 85 C90.71065874 81.54424587 86.88916302 78.1347711 83.01953125 74.76953125 C78.10263444 70.46130252 73.27360968 66.05313844 68.421875 61.671875 C63.99878599 57.68295423 59.55384995 53.72432093 55.0625 49.8125 C51.82624923 46.96852205 48.63591332 44.07387299 45.4375 41.1875 C43.30582519 39.27445851 41.1598089 37.38112388 39 35.5 C35.10487189 32.10746907 31.27217237 28.64805799 27.4375 25.1875 C24.66987459 22.70373361 21.87091441 20.25831133 19.06640625 17.81640625 C15.81816434 14.96114635 12.61801458 12.05280298 9.41015625 9.15234375 C7.25961653 7.23184556 5.07990525 5.35746563 2.875 3.5 C1.92625 2.675 0.9775 1.85 0 1 C0 0.67 0 0.34 0 0 Z " fill="#073DBE" transform="translate(1239,2103)"/>
<path d="M0 0 C24.79517258 20.89047824 38.44054319 49.27712827 41.19921875 81.46875 C43.49998711 112.71039551 35.40576346 144.68944511 14.72753906 168.78173828 C-5.56611511 191.72626887 -33.53013574 207.16595182 -64.40869141 209.52783203 C-102.46737321 211.72688915 -135.15692716 203.10081636 -164.26464844 177.90673828 C-183.94301594 159.55913808 -197.45770453 132.07226978 -198.81665039 105.15014648 C-199.37662382 71.40672769 -199.37662382 71.40672769 -194.63964844 55.65673828 C-194.43065918 54.95887207 -194.22166992 54.26100586 -194.00634766 53.54199219 C-189.38899021 38.77682446 -181.7905664 25.30914619 -171.63964844 13.65673828 C-171.12402344 12.99802734 -170.60839844 12.33931641 -170.07714844 11.66064453 C-151.86799869 -10.96422402 -121.48814858 -23.01030962 -93.39453125 -26.10009766 C-59.99929755 -29.04778046 -26.26095898 -21.51396609 0 0 Z M-121.38574219 45.98876953 C-135.09757913 62.21959212 -137.98365273 81.03611162 -136.63964844 101.65673828 C-134.67842936 119.00289887 -126.89250388 133.33749617 -113.63964844 144.65673828 C-103.05342103 152.24973526 -92.39169557 155.83479947 -79.51464844 155.90673828 C-78.61488281 155.92736328 -77.71511719 155.94798828 -76.78808594 155.96923828 C-61.92983293 156.05463054 -49.86645996 149.77922862 -39.40527344 139.55126953 C-26.76310673 126.6389344 -21.43755433 110.04075049 -21.26464844 92.21923828 C-21.49895144 74.25532928 -26.41421811 57.74544942 -38.31933594 43.90283203 C-51.34791777 31.29098935 -66.04625501 27.09857137 -83.76855469 27.38330078 C-98.50914203 27.95935004 -111.42297711 35.41832376 -121.38574219 45.98876953 Z " fill="#073DBE" transform="translate(2226.6396484375,2199.34326171875)"/>
<path d="M0 0 C15.05145869 12.71610169 25.3066347 27.81714889 32.33740234 46.18701172 C32.61165039 46.88842285 32.88589844 47.58983398 33.16845703 48.3125 C40.42785459 68.47198229 38.46240234 88.41645996 38.46240234 109.74951172 C-14.66759766 109.74951172 -67.79759766 109.74951172 -122.53759766 109.74951172 C-115.25057651 129.18156811 -108.27539926 142.42339129 -89.53759766 151.74951172 C-69.24230746 160.57228493 -45.52822728 161.16151915 -24.89306641 153.23388672 C-16.99305888 149.73912204 -9.80821242 145.35056652 -3.25634766 139.71826172 C-1.53759766 138.74951172 -1.53759766 138.74951172 0.39624023 138.96264648 C3.01693174 139.96069549 3.71723773 141.03579592 5.23974609 143.37060547 C5.74731445 144.13300537 6.25488281 144.89540527 6.77783203 145.6809082 C7.31311523 146.50792236 7.84839844 147.33493652 8.39990234 148.18701172 C9.54724555 149.91776937 10.69705513 151.64689414 11.84912109 153.37451172 C12.43999512 154.26267578 13.03086914 155.15083984 13.63964844 156.06591797 C17.08306717 161.13557491 20.74287059 166.05181843 24.41137695 170.96020508 C24.92837158 171.66282471 25.44536621 172.36544434 25.97802734 173.08935547 C26.43467773 173.70157959 26.89132813 174.31380371 27.36181641 174.94458008 C28.53671559 176.87138347 29.03331956 178.5448406 29.46240234 180.74951172 C-0.81405516 205.58242806 -37.22311597 216.85510485 -76.32958984 213.51074219 C-108.80689606 209.90413317 -137.97993065 196.8105729 -159.23974609 171.375 C-169.8604895 158.07309827 -176.72641281 142.27668771 -180.53759766 125.74951172 C-180.71492432 124.99702148 -180.89225098 124.24453125 -181.07495117 123.46923828 C-182.85235087 115.04972674 -182.8938021 106.68497275 -182.85009766 98.12451172 C-182.8479425 97.368396 -182.84578735 96.61228027 -182.84356689 95.83325195 C-182.68379744 60.96472198 -170.93517802 31.22200037 -146.20166016 6.40576172 C-108.02116526 -29.67418815 -40.98939525 -33.0766406 0 0 Z M-111.53759766 48.74951172 C-116.68355243 55.53676539 -121.53759766 63.02010798 -121.53759766 71.74951172 C-87.87759766 71.74951172 -54.21759766 71.74951172 -19.53759766 71.74951172 C-21.76046836 58.41228749 -24.84235271 49.23751651 -35.53759766 40.74951172 C-59.50622624 24.29590895 -91.45809004 27.27605481 -111.53759766 48.74951172 Z " fill="#073DBE" transform="translate(2993.53759765625,2195.25048828125)"/>
<path d="M0 0 C13.19210662 12.7499131 19.9414912 30.84305278 20.27789307 49.04309082 C20.30370082 52.04047245 20.28000005 55.0359261 20.25097656 58.03320312 C20.24984477 59.70056633 20.25048839 61.36793152 20.25274658 63.03529358 C20.25388174 67.50752432 20.23056964 71.97931504 20.20245075 76.45144463 C20.17723436 81.14521861 20.1750793 85.83900564 20.17034912 90.53283691 C20.15797825 99.39701666 20.12523742 108.26099615 20.08495116 117.12508821 C20.0400488 127.22681062 20.01820024 137.32854321 19.99816942 147.43034077 C19.95649868 168.18807169 19.88322108 188.94552853 19.796875 209.703125 C0.656875 209.703125 -18.483125 209.703125 -38.203125 209.703125 C-38.533125 203.103125 -38.863125 196.503125 -39.203125 189.703125 C-40.62625 190.981875 -42.049375 192.260625 -43.515625 193.578125 C-62.99851861 209.47074312 -86.53958725 215.92134295 -111.43310547 213.48486328 C-131.14005154 210.88980373 -149.95982184 202.30271515 -162.6484375 186.6953125 C-174.7007283 170.61085758 -177.8472743 152.34797505 -175.453125 132.703125 C-172.79742215 115.71034105 -164.72984404 102.10091141 -151.140625 91.515625 C-125.77710513 74.00524517 -94.03147459 73.20712889 -64.390625 73.515625 C-61.83659654 73.53071647 -59.28255933 73.54439689 -56.72851562 73.55664062 C-50.55319033 73.58925205 -44.37820037 73.63908919 -38.203125 73.703125 C-38.339974 71.48145221 -38.48313104 69.26016745 -38.62890625 67.0390625 C-38.74745972 65.1835376 -38.74745972 65.1835376 -38.8684082 63.29052734 C-39.66086222 54.79722372 -42.1375585 47.83462157 -48.203125 41.703125 C-58.92202536 32.94935638 -70.59777362 30.8370436 -84.203125 31.703125 C-103.78759141 34.33789961 -117.64391121 42.24861208 -130.79296875 56.67578125 C-133.203125 58.703125 -133.203125 58.703125 -135.01879883 58.64868164 C-138.15818724 57.28969524 -140.2282303 55.0265325 -142.5625 52.6015625 C-143.32460785 51.82952988 -143.32460785 51.82952988 -144.10211182 51.04190063 C-145.72638114 49.39426567 -147.34019192 47.73685266 -148.953125 46.078125 C-151.06903512 43.91543674 -153.18932733 41.75712031 -155.3125 39.6015625 C-155.8233313 39.08205017 -156.3341626 38.56253784 -156.86047363 38.02728271 C-160.30452935 34.54741818 -163.84765799 31.24660138 -167.59082031 28.09228516 C-169.20895756 26.69809967 -170.71181885 25.23123256 -172.203125 23.703125 C-165.62838556 7.26627641 -137.89999238 -6.25054023 -122.55664062 -12.8515625 C-84.33555496 -28.47830774 -32.35034701 -27.99226917 0 0 Z M-110.51171875 125.7890625 C-115.28869595 131.19487966 -117.49821086 137.48581659 -117.203125 144.703125 C-116.07047421 151.1831944 -113.2626024 156.46581268 -108.203125 160.703125 C-97.29116498 167.45315155 -86.59251986 167.93758697 -74.140625 165.515625 C-63.53882912 163.01080509 -53.90578804 158.26785059 -45.203125 151.703125 C-44.58622803 151.29280029 -43.96933105 150.88247559 -43.33374023 150.4597168 C-39.85108407 147.72192907 -38.37899221 145.76880941 -37.64599609 141.32714844 C-37.51384295 137.28295608 -37.59073478 133.30507045 -37.765625 129.265625 C-37.80078418 127.85229084 -37.83271513 126.43887247 -37.86132812 125.02539062 C-37.93799467 121.58286925 -38.05851634 118.14353986 -38.203125 114.703125 C-44.08893641 114.6531899 -49.97462086 114.61715542 -55.8605957 114.59326172 C-57.85736239 114.58328673 -59.85411478 114.56970191 -61.85083008 114.55224609 C-88.06152951 113.86245066 -88.06152951 113.86245066 -110.51171875 125.7890625 Z " fill="#073DBE" transform="translate(3239.203125,2195.296875)"/>
<path d="M0 0 C21.45 0 42.9 0 65 0 C65 79.53 65 159.06 65 241 C109.88 241 154.76 241 201 241 C201 260.47 201 279.94 201 300 C134.67 300 68.34 300 0 300 C0 201 0 102 0 0 Z " fill="#073DBE" transform="translate(2575,2105)"/>
<path d="M0 0 C22.11 0 44.22 0 67 0 C70.36557832 8.07738798 73.5510298 16.08241986 76.44921875 24.3203125 C77.06477379 26.05643799 77.06477379 26.05643799 77.69276428 27.82763672 C78.79810028 30.94622948 79.90068875 34.06577715 81.00224304 37.18570709 C82.87077798 42.47370384 84.74807019 47.75860502 86.62368393 53.04409409 C87.34166998 55.067647 88.05928666 57.09133067 88.77688599 59.11502075 C93.39454987 72.13276315 98.06460874 85.13148835 102.75 98.125 C103.10532806 99.11066956 103.46065613 100.09633911 103.82675171 101.11187744 C105.51987056 105.80823551 107.21376712 110.50431232 108.90820312 115.20019531 C112.61129571 125.4646967 116.30499564 135.7325849 120 146 C122.86446209 143.13553791 123.73824414 139.61594069 125.0625 135.8671875 C125.36550018 135.02486069 125.66850037 134.18253387 125.98068237 133.31468201 C126.64206288 131.47522854 127.30104357 129.6349109 127.95794678 127.79385376 C129.75314323 122.76540051 131.56812363 117.74410154 133.3828125 112.72265625 C133.76164581 111.67351547 134.14047913 110.62437469 134.53079224 109.54344177 C138.55194438 98.43118632 142.7061537 87.37001313 146.875 76.3125 C151.65915424 63.62043102 156.41259846 50.91879778 161.0703125 38.1796875 C161.48546112 37.04486435 161.90060974 35.9100412 162.32833862 34.74082947 C164.3378829 29.24445711 166.34204361 23.74619018 168.33935547 18.24536133 C169.05946666 16.27160932 169.77967615 14.29789316 170.5 12.32421875 C170.82622345 11.42037445 171.1524469 10.51653015 171.48855591 9.58529663 C171.79139496 8.75752716 172.09423401 7.92975769 172.40625 7.0769043 C172.66728516 6.35786423 172.92832031 5.63882416 173.19726562 4.897995 C174 3 174 3 176 0 C178.74612427 -0.36076355 178.74612427 -0.36076355 182.28564453 -0.34057617 C182.92967224 -0.34101425 183.57369995 -0.34145233 184.23724365 -0.34190369 C186.36940664 -0.33981094 188.50078662 -0.31645865 190.6328125 -0.29296875 C192.10968598 -0.28737448 193.58656502 -0.28310359 195.06344604 -0.28010559 C198.95326063 -0.26864335 202.8427399 -0.23916473 206.73242188 -0.20599365 C210.70047469 -0.17532222 214.6685816 -0.16160655 218.63671875 -0.14648438 C226.42463214 -0.11429599 234.21226911 -0.06308345 242 0 C237.32991058 11.53007087 232.43606623 22.94484704 227.38256836 34.31176758 C225.28561748 39.02872901 223.19618809 43.74902412 221.10546875 48.46875 C220.67797333 49.43325073 220.25047791 50.39775146 219.81002808 51.39147949 C215.51568572 61.08366551 211.25591276 70.79089379 207 80.5 C200.85671219 94.51038599 194.68794184 108.50928096 188.5 122.5 C182.29361407 136.53341171 176.10382007 150.57393529 169.9375 164.625 C169.57367218 165.45378662 169.20984436 166.28257324 168.83499146 167.13647461 C164.94845063 175.99000878 161.06646272 184.84551053 157.19334412 193.70492554 C155.51431849 197.54476286 153.83356627 201.38384319 152.15261841 205.22283936 C151.34662446 207.06494352 150.54150057 208.90742864 149.73727417 210.75030518 C148.62771649 213.29278846 147.51534474 215.8340226 146.40234375 218.375 C146.07097412 219.13638275 145.73960449 219.8977655 145.39819336 220.68222046 C143.11386114 225.88613886 143.11386114 225.88613886 142 227 C140.52645652 227.09304018 139.04849409 227.11746265 137.57202148 227.11352539 C136.63112167 227.11344986 135.69022186 227.11337433 134.72080994 227.11329651 C133.69790359 227.10813522 132.67499725 227.10297394 131.62109375 227.09765625 C130.058395 227.09553383 130.058395 227.09553383 128.46412659 227.09336853 C125.12188906 227.0877508 121.77971743 227.0751953 118.4375 227.0625 C116.17773534 227.05748728 113.91796963 227.05292398 111.65820312 227.04882812 C106.10544609 227.03777561 100.55272775 227.02102024 95 227 C91.64313779 220.47383852 88.59234635 213.89289543 85.8046875 207.10546875 C85.41970093 206.17702148 85.03471436 205.24857422 84.63806152 204.29199219 C83.81144008 202.29770088 82.98638831 200.30275834 82.16278076 198.30722046 C79.93915507 192.92036366 77.70325696 187.5386001 75.46875 182.15625 C74.78321548 180.5037751 74.78321548 180.5037751 74.08383179 178.81791687 C69.56014097 167.92163422 64.97364364 157.05231427 60.375 146.1875 C52.32516897 127.15837857 44.33157186 108.10622822 36.36296082 89.04296875 C33.32700678 81.78035859 30.28676845 74.51954819 27.2454071 67.25920105 C24.25387591 60.1174825 21.2653096 52.97452691 18.27778625 45.83113098 C16.06845288 40.54971622 13.85452909 35.27025218 11.63731384 29.99214172 C10.21660051 26.60849905 8.79870778 23.2236793 7.38143921 19.83859253 C6.71540785 18.24962134 6.04812893 16.66117244 5.37954712 15.07327271 C4.46594239 12.90305222 3.55666922 10.73106712 2.6484375 8.55859375 C2.37753799 7.91812103 2.10663849 7.27764832 1.82752991 6.61776733 C0 2.22804421 0 2.22804421 0 0 Z " fill="#073DBE" transform="translate(2289,2178)"/>
</svg>
